<mxfile host="Electron" modified="2023-09-27T16:18:23.628Z" agent="Mozilla/5.0 (Windows NT 10.0; Win64; x64) AppleWebKit/537.36 (KHTML, like Gecko) draw.io/21.8.2 Chrome/114.0.5735.289 Electron/25.8.1 Safari/537.36" etag="UjhqhQDIGAf23z8QwOBE" version="21.8.2" type="device">
  <diagram name="Página-1" id="dDuTHH52gX7ZqQu3wlVP">
    <mxGraphModel dx="2868" dy="1688" grid="1" gridSize="10" guides="1" tooltips="1" connect="1" arrows="1" fold="1" page="1" pageScale="1" pageWidth="827" pageHeight="1169" math="0" shadow="0">
      <root>
        <mxCell id="0" />
        <mxCell id="1" parent="0" />
        <mxCell id="AHNI7z8tW2rZzbGDZ_H5-4" value="Elaborar ERS&lt;sup&gt;1&lt;/sup&gt;" style="rounded=0;whiteSpace=wrap;html=1;" vertex="1" parent="1">
          <mxGeometry x="40" y="40" width="80" height="40" as="geometry" />
        </mxCell>
        <mxCell id="AHNI7z8tW2rZzbGDZ_H5-14" style="edgeStyle=orthogonalEdgeStyle;rounded=0;orthogonalLoop=1;jettySize=auto;html=1;exitX=1;exitY=0.5;exitDx=0;exitDy=0;entryX=0;entryY=0;entryDx=0;entryDy=0;" edge="1" parent="1" source="AHNI7z8tW2rZzbGDZ_H5-5" target="AHNI7z8tW2rZzbGDZ_H5-13">
          <mxGeometry relative="1" as="geometry" />
        </mxCell>
        <mxCell id="AHNI7z8tW2rZzbGDZ_H5-5" value="Elaborar Doc. Usuario v1&lt;sup&gt;2&lt;/sup&gt;" style="rounded=0;whiteSpace=wrap;html=1;" vertex="1" parent="1">
          <mxGeometry x="140" y="100" width="80" height="40" as="geometry" />
        </mxCell>
        <mxCell id="AHNI7z8tW2rZzbGDZ_H5-7" value="" style="endArrow=classic;html=1;rounded=0;exitX=1;exitY=0.25;exitDx=0;exitDy=0;entryX=0;entryY=0;entryDx=0;entryDy=0;" edge="1" parent="1" source="AHNI7z8tW2rZzbGDZ_H5-4" target="AHNI7z8tW2rZzbGDZ_H5-5">
          <mxGeometry width="50" height="50" relative="1" as="geometry">
            <mxPoint x="210" y="190" as="sourcePoint" />
            <mxPoint x="260" y="140" as="targetPoint" />
            <Array as="points">
              <mxPoint x="140" y="50" />
            </Array>
          </mxGeometry>
        </mxCell>
        <mxCell id="AHNI7z8tW2rZzbGDZ_H5-11" value="FC -40%" style="text;html=1;strokeColor=none;fillColor=none;align=center;verticalAlign=middle;whiteSpace=wrap;rounded=0;" vertex="1" parent="1">
          <mxGeometry x="150" y="70" width="50" height="15" as="geometry" />
        </mxCell>
        <mxCell id="AHNI7z8tW2rZzbGDZ_H5-13" value="Peer View de Requisitos&lt;sup&gt;3&lt;/sup&gt;" style="rounded=0;whiteSpace=wrap;html=1;" vertex="1" parent="1">
          <mxGeometry x="240" y="170" width="80" height="40" as="geometry" />
        </mxCell>
        <mxCell id="AHNI7z8tW2rZzbGDZ_H5-17" value="" style="endArrow=none;html=1;rounded=0;" edge="1" parent="1">
          <mxGeometry width="50" height="50" relative="1" as="geometry">
            <mxPoint x="120" y="70" as="sourcePoint" />
            <mxPoint x="240" y="150" as="targetPoint" />
            <Array as="points">
              <mxPoint x="130" y="70" />
              <mxPoint x="130" y="150" />
            </Array>
          </mxGeometry>
        </mxCell>
        <mxCell id="AHNI7z8tW2rZzbGDZ_H5-18" value="FC" style="text;html=1;strokeColor=none;fillColor=none;align=center;verticalAlign=middle;whiteSpace=wrap;rounded=0;" vertex="1" parent="1">
          <mxGeometry x="250" y="140" width="40" height="20" as="geometry" />
        </mxCell>
        <mxCell id="AHNI7z8tW2rZzbGDZ_H5-19" value="FC" style="text;html=1;strokeColor=none;fillColor=none;align=center;verticalAlign=middle;whiteSpace=wrap;rounded=0;" vertex="1" parent="1">
          <mxGeometry x="170" y="160" width="60" height="30" as="geometry" />
        </mxCell>
        <mxCell id="AHNI7z8tW2rZzbGDZ_H5-20" value="Elaborar plan pruebas aceptación&lt;sup&gt;13&lt;/sup&gt;" style="rounded=0;whiteSpace=wrap;html=1;" vertex="1" parent="1">
          <mxGeometry x="334" y="230" width="116" height="50" as="geometry" />
        </mxCell>
        <mxCell id="AHNI7z8tW2rZzbGDZ_H5-22" value="" style="endArrow=classic;html=1;rounded=0;exitX=1;exitY=0.5;exitDx=0;exitDy=0;entryX=0;entryY=0;entryDx=0;entryDy=0;" edge="1" parent="1" source="AHNI7z8tW2rZzbGDZ_H5-13" target="AHNI7z8tW2rZzbGDZ_H5-20">
          <mxGeometry width="50" height="50" relative="1" as="geometry">
            <mxPoint x="380" y="190" as="sourcePoint" />
            <mxPoint x="430" y="140" as="targetPoint" />
            <Array as="points">
              <mxPoint x="334" y="190" />
            </Array>
          </mxGeometry>
        </mxCell>
        <mxCell id="AHNI7z8tW2rZzbGDZ_H5-23" value="FC" style="text;html=1;strokeColor=none;fillColor=none;align=center;verticalAlign=middle;whiteSpace=wrap;rounded=0;" vertex="1" parent="1">
          <mxGeometry x="340" y="200" width="40" height="20" as="geometry" />
        </mxCell>
        <mxCell id="AHNI7z8tW2rZzbGDZ_H5-25" value="Elaborar arquitectura&lt;sup&gt;4&lt;/sup&gt;" style="rounded=0;whiteSpace=wrap;html=1;" vertex="1" parent="1">
          <mxGeometry x="480" y="280" width="80" height="40" as="geometry" />
        </mxCell>
        <mxCell id="AHNI7z8tW2rZzbGDZ_H5-26" value="Diseño&amp;nbsp;BBDD&lt;sup&gt;5&lt;/sup&gt;" style="rounded=0;whiteSpace=wrap;html=1;" vertex="1" parent="1">
          <mxGeometry x="460" y="350" width="90" height="40" as="geometry" />
        </mxCell>
        <mxCell id="AHNI7z8tW2rZzbGDZ_H5-27" value="" style="endArrow=classic;html=1;rounded=0;exitX=1;exitY=0.5;exitDx=0;exitDy=0;entryX=0;entryY=0;entryDx=0;entryDy=0;" edge="1" parent="1" source="AHNI7z8tW2rZzbGDZ_H5-20" target="AHNI7z8tW2rZzbGDZ_H5-25">
          <mxGeometry width="50" height="50" relative="1" as="geometry">
            <mxPoint x="380" y="300" as="sourcePoint" />
            <mxPoint x="430" y="250" as="targetPoint" />
            <Array as="points">
              <mxPoint x="480" y="255" />
            </Array>
          </mxGeometry>
        </mxCell>
        <mxCell id="AHNI7z8tW2rZzbGDZ_H5-28" value="" style="endArrow=classic;html=1;rounded=0;exitX=1;exitY=0.75;exitDx=0;exitDy=0;entryX=0;entryY=0;entryDx=0;entryDy=0;" edge="1" parent="1" source="AHNI7z8tW2rZzbGDZ_H5-20" target="AHNI7z8tW2rZzbGDZ_H5-26">
          <mxGeometry width="50" height="50" relative="1" as="geometry">
            <mxPoint x="380" y="300" as="sourcePoint" />
            <mxPoint x="430" y="250" as="targetPoint" />
            <Array as="points">
              <mxPoint x="460" y="268" />
            </Array>
          </mxGeometry>
        </mxCell>
        <mxCell id="AHNI7z8tW2rZzbGDZ_H5-29" value="FC" style="text;html=1;strokeColor=none;fillColor=none;align=center;verticalAlign=middle;whiteSpace=wrap;rounded=0;" vertex="1" parent="1">
          <mxGeometry x="490" y="240" width="40" height="20" as="geometry" />
        </mxCell>
        <mxCell id="AHNI7z8tW2rZzbGDZ_H5-30" value="FC" style="text;html=1;strokeColor=none;fillColor=none;align=center;verticalAlign=middle;whiteSpace=wrap;rounded=0;" vertex="1" parent="1">
          <mxGeometry x="414" y="310" width="40" height="20" as="geometry" />
        </mxCell>
        <mxCell id="AHNI7z8tW2rZzbGDZ_H5-32" value="Elaborar plan pruebas sistema&lt;sup&gt;15&lt;/sup&gt;" style="rounded=0;whiteSpace=wrap;html=1;" vertex="1" parent="1">
          <mxGeometry x="590" y="400" width="110" height="40" as="geometry" />
        </mxCell>
        <mxCell id="AHNI7z8tW2rZzbGDZ_H5-33" value="" style="endArrow=classic;html=1;rounded=0;entryX=0;entryY=0;entryDx=0;entryDy=0;exitX=1;exitY=0.5;exitDx=0;exitDy=0;" edge="1" parent="1" source="AHNI7z8tW2rZzbGDZ_H5-25" target="AHNI7z8tW2rZzbGDZ_H5-32">
          <mxGeometry width="50" height="50" relative="1" as="geometry">
            <mxPoint x="440" y="320" as="sourcePoint" />
            <mxPoint x="490" y="270" as="targetPoint" />
            <Array as="points">
              <mxPoint x="590" y="300" />
            </Array>
          </mxGeometry>
        </mxCell>
        <mxCell id="AHNI7z8tW2rZzbGDZ_H5-34" value="" style="endArrow=none;html=1;rounded=0;exitX=1;exitY=0.5;exitDx=0;exitDy=0;" edge="1" parent="1" source="AHNI7z8tW2rZzbGDZ_H5-26">
          <mxGeometry width="50" height="50" relative="1" as="geometry">
            <mxPoint x="440" y="320" as="sourcePoint" />
            <mxPoint x="590" y="370" as="targetPoint" />
          </mxGeometry>
        </mxCell>
        <mxCell id="AHNI7z8tW2rZzbGDZ_H5-35" value="FC" style="text;html=1;strokeColor=none;fillColor=none;align=center;verticalAlign=middle;whiteSpace=wrap;rounded=0;" vertex="1" parent="1">
          <mxGeometry x="600" y="330" width="40" height="20" as="geometry" />
        </mxCell>
        <mxCell id="AHNI7z8tW2rZzbGDZ_H5-36" value="FC" style="text;html=1;strokeColor=none;fillColor=none;align=center;verticalAlign=middle;whiteSpace=wrap;rounded=0;" vertex="1" parent="1">
          <mxGeometry x="550" y="350" width="40" height="20" as="geometry" />
        </mxCell>
        <mxCell id="AHNI7z8tW2rZzbGDZ_H5-37" value="Detalle componentes&lt;sup&gt;6&lt;/sup&gt;" style="rounded=0;whiteSpace=wrap;html=1;" vertex="1" parent="1">
          <mxGeometry x="720" y="480" width="100" height="40" as="geometry" />
        </mxCell>
        <mxCell id="AHNI7z8tW2rZzbGDZ_H5-38" value="" style="endArrow=classic;html=1;rounded=0;exitX=1;exitY=0.5;exitDx=0;exitDy=0;entryX=0;entryY=0;entryDx=0;entryDy=0;" edge="1" parent="1" source="AHNI7z8tW2rZzbGDZ_H5-32" target="AHNI7z8tW2rZzbGDZ_H5-37">
          <mxGeometry width="50" height="50" relative="1" as="geometry">
            <mxPoint x="550" y="380" as="sourcePoint" />
            <mxPoint x="600" y="330" as="targetPoint" />
            <Array as="points">
              <mxPoint x="720" y="420" />
            </Array>
          </mxGeometry>
        </mxCell>
        <mxCell id="AHNI7z8tW2rZzbGDZ_H5-39" value="FC" style="text;html=1;strokeColor=none;fillColor=none;align=center;verticalAlign=middle;whiteSpace=wrap;rounded=0;" vertex="1" parent="1">
          <mxGeometry x="720" y="430" width="40" height="20" as="geometry" />
        </mxCell>
        <mxCell id="AHNI7z8tW2rZzbGDZ_H5-40" value="Revisión técnica del diseño software&lt;sup&gt;7&lt;/sup&gt;" style="rounded=0;whiteSpace=wrap;html=1;" vertex="1" parent="1">
          <mxGeometry x="830" y="550" width="120" height="50" as="geometry" />
        </mxCell>
        <mxCell id="AHNI7z8tW2rZzbGDZ_H5-41" value="" style="endArrow=classic;html=1;rounded=0;entryX=0;entryY=0;entryDx=0;entryDy=0;exitX=1;exitY=0.5;exitDx=0;exitDy=0;" edge="1" parent="1" source="AHNI7z8tW2rZzbGDZ_H5-37" target="AHNI7z8tW2rZzbGDZ_H5-40">
          <mxGeometry width="50" height="50" relative="1" as="geometry">
            <mxPoint x="730" y="550" as="sourcePoint" />
            <mxPoint x="780" y="500" as="targetPoint" />
            <Array as="points">
              <mxPoint x="830" y="500" />
            </Array>
          </mxGeometry>
        </mxCell>
        <mxCell id="AHNI7z8tW2rZzbGDZ_H5-43" value="FC" style="text;html=1;strokeColor=none;fillColor=none;align=center;verticalAlign=middle;whiteSpace=wrap;rounded=0;" vertex="1" parent="1">
          <mxGeometry x="840" y="510" width="40" height="20" as="geometry" />
        </mxCell>
        <mxCell id="AHNI7z8tW2rZzbGDZ_H5-44" value="Elaborar plan pruebas integración&lt;sup&gt;17&lt;/sup&gt;" style="rounded=0;whiteSpace=wrap;html=1;" vertex="1" parent="1">
          <mxGeometry x="1020" y="630" width="130" height="50" as="geometry" />
        </mxCell>
        <mxCell id="AHNI7z8tW2rZzbGDZ_H5-45" value="Elaborar Doc. Usuario v2&lt;sup&gt;8&lt;/sup&gt;" style="rounded=0;whiteSpace=wrap;html=1;" vertex="1" parent="1">
          <mxGeometry x="970" y="690" width="120" height="50" as="geometry" />
        </mxCell>
        <mxCell id="AHNI7z8tW2rZzbGDZ_H5-46" value="" style="endArrow=classic;html=1;rounded=0;exitX=1;exitY=0.5;exitDx=0;exitDy=0;entryX=0;entryY=0;entryDx=0;entryDy=0;" edge="1" parent="1" source="AHNI7z8tW2rZzbGDZ_H5-40" target="AHNI7z8tW2rZzbGDZ_H5-44">
          <mxGeometry width="50" height="50" relative="1" as="geometry">
            <mxPoint x="910" y="690" as="sourcePoint" />
            <mxPoint x="960" y="640" as="targetPoint" />
            <Array as="points">
              <mxPoint x="1020" y="575" />
            </Array>
          </mxGeometry>
        </mxCell>
        <mxCell id="AHNI7z8tW2rZzbGDZ_H5-47" value="" style="endArrow=classic;html=1;rounded=0;exitX=1;exitY=0.75;exitDx=0;exitDy=0;entryX=0;entryY=0;entryDx=0;entryDy=0;" edge="1" parent="1" source="AHNI7z8tW2rZzbGDZ_H5-40" target="AHNI7z8tW2rZzbGDZ_H5-45">
          <mxGeometry width="50" height="50" relative="1" as="geometry">
            <mxPoint x="910" y="690" as="sourcePoint" />
            <mxPoint x="960" y="640" as="targetPoint" />
            <Array as="points">
              <mxPoint x="970" y="588" />
            </Array>
          </mxGeometry>
        </mxCell>
        <mxCell id="AHNI7z8tW2rZzbGDZ_H5-48" value="FC" style="text;html=1;strokeColor=none;fillColor=none;align=center;verticalAlign=middle;whiteSpace=wrap;rounded=0;" vertex="1" parent="1">
          <mxGeometry x="1020" y="600" width="40" height="20" as="geometry" />
        </mxCell>
        <mxCell id="AHNI7z8tW2rZzbGDZ_H5-49" value="FC" style="text;html=1;strokeColor=none;fillColor=none;align=center;verticalAlign=middle;whiteSpace=wrap;rounded=0;" vertex="1" parent="1">
          <mxGeometry x="930" y="670" width="40" height="20" as="geometry" />
        </mxCell>
        <mxCell id="AHNI7z8tW2rZzbGDZ_H5-51" value="Implementar BBDD&lt;sup&gt;9&lt;/sup&gt;" style="rounded=0;whiteSpace=wrap;html=1;" vertex="1" parent="1">
          <mxGeometry x="1190" y="680" width="120" height="50" as="geometry" />
        </mxCell>
        <mxCell id="AHNI7z8tW2rZzbGDZ_H5-52" value="Implementar unidades&lt;sup&gt;10&lt;/sup&gt;" style="rounded=0;whiteSpace=wrap;html=1;" vertex="1" parent="1">
          <mxGeometry x="1170" y="750" width="120" height="50" as="geometry" />
        </mxCell>
        <mxCell id="AHNI7z8tW2rZzbGDZ_H5-53" value="" style="endArrow=classic;html=1;rounded=0;exitX=1;exitY=0.5;exitDx=0;exitDy=0;entryX=0;entryY=0;entryDx=0;entryDy=0;" edge="1" parent="1" source="AHNI7z8tW2rZzbGDZ_H5-44" target="AHNI7z8tW2rZzbGDZ_H5-51">
          <mxGeometry width="50" height="50" relative="1" as="geometry">
            <mxPoint x="1120" y="760" as="sourcePoint" />
            <mxPoint x="1170" y="710" as="targetPoint" />
            <Array as="points">
              <mxPoint x="1190" y="655" />
            </Array>
          </mxGeometry>
        </mxCell>
        <mxCell id="AHNI7z8tW2rZzbGDZ_H5-54" value="" style="endArrow=classic;html=1;rounded=0;exitX=1;exitY=0.75;exitDx=0;exitDy=0;entryX=0;entryY=0;entryDx=0;entryDy=0;" edge="1" parent="1" source="AHNI7z8tW2rZzbGDZ_H5-44" target="AHNI7z8tW2rZzbGDZ_H5-52">
          <mxGeometry width="50" height="50" relative="1" as="geometry">
            <mxPoint x="1130" y="745" as="sourcePoint" />
            <mxPoint x="1170" y="810" as="targetPoint" />
            <Array as="points">
              <mxPoint x="1170" y="668" />
            </Array>
          </mxGeometry>
        </mxCell>
        <mxCell id="AHNI7z8tW2rZzbGDZ_H5-55" value="&lt;sup&gt;&lt;span style=&quot;font-size: 12px;&quot;&gt;Ejecutar pruebas de unidad&lt;sup&gt;12&lt;/sup&gt;&lt;/span&gt;&lt;/sup&gt;" style="rounded=0;whiteSpace=wrap;html=1;" vertex="1" parent="1">
          <mxGeometry x="1330" y="820" width="120" height="50" as="geometry" />
        </mxCell>
        <mxCell id="AHNI7z8tW2rZzbGDZ_H5-56" value="" style="endArrow=classic;html=1;rounded=0;exitX=1;exitY=0.5;exitDx=0;exitDy=0;entryX=0;entryY=0;entryDx=0;entryDy=0;" edge="1" parent="1" source="AHNI7z8tW2rZzbGDZ_H5-52" target="AHNI7z8tW2rZzbGDZ_H5-55">
          <mxGeometry width="50" height="50" relative="1" as="geometry">
            <mxPoint x="1290" y="760" as="sourcePoint" />
            <mxPoint x="1340" y="710" as="targetPoint" />
            <Array as="points">
              <mxPoint x="1330" y="775" />
            </Array>
          </mxGeometry>
        </mxCell>
        <mxCell id="AHNI7z8tW2rZzbGDZ_H5-57" value="FC" style="text;html=1;strokeColor=none;fillColor=none;align=center;verticalAlign=middle;whiteSpace=wrap;rounded=0;" vertex="1" parent="1">
          <mxGeometry x="1340" y="770" width="60" height="30" as="geometry" />
        </mxCell>
        <mxCell id="AHNI7z8tW2rZzbGDZ_H5-58" value="Documentar unidades&lt;sup&gt;11&lt;/sup&gt;" style="rounded=0;whiteSpace=wrap;html=1;" vertex="1" parent="1">
          <mxGeometry x="1470" y="865" width="120" height="50" as="geometry" />
        </mxCell>
        <mxCell id="AHNI7z8tW2rZzbGDZ_H5-59" value="" style="endArrow=classic;html=1;rounded=0;exitX=1;exitY=0.5;exitDx=0;exitDy=0;entryX=0;entryY=0;entryDx=0;entryDy=0;" edge="1" parent="1" target="AHNI7z8tW2rZzbGDZ_H5-58">
          <mxGeometry width="50" height="50" relative="1" as="geometry">
            <mxPoint x="1450" y="830" as="sourcePoint" />
            <mxPoint x="1390" y="815" as="targetPoint" />
            <Array as="points">
              <mxPoint x="1470" y="830" />
            </Array>
          </mxGeometry>
        </mxCell>
        <mxCell id="AHNI7z8tW2rZzbGDZ_H5-60" value="FC -50%" style="text;html=1;strokeColor=none;fillColor=none;align=center;verticalAlign=middle;whiteSpace=wrap;rounded=0;" vertex="1" parent="1">
          <mxGeometry x="1480" y="835" width="60" height="30" as="geometry" />
        </mxCell>
        <mxCell id="AHNI7z8tW2rZzbGDZ_H5-61" value="Ejecutar plan pruebas integración&lt;sup&gt;17&lt;/sup&gt;" style="rounded=0;whiteSpace=wrap;html=1;" vertex="1" parent="1">
          <mxGeometry x="1460" y="960" width="120" height="50" as="geometry" />
        </mxCell>
        <mxCell id="AHNI7z8tW2rZzbGDZ_H5-62" value="" style="endArrow=classic;html=1;rounded=0;exitX=1;exitY=0.5;exitDx=0;exitDy=0;entryX=0;entryY=0;entryDx=0;entryDy=0;" edge="1" parent="1" source="AHNI7z8tW2rZzbGDZ_H5-55" target="AHNI7z8tW2rZzbGDZ_H5-61">
          <mxGeometry width="50" height="50" relative="1" as="geometry">
            <mxPoint x="1460" y="930" as="sourcePoint" />
            <mxPoint x="1510" y="880" as="targetPoint" />
            <Array as="points">
              <mxPoint x="1460" y="845" />
            </Array>
          </mxGeometry>
        </mxCell>
        <mxCell id="AHNI7z8tW2rZzbGDZ_H5-63" value="FC" style="text;html=1;strokeColor=none;fillColor=none;align=center;verticalAlign=middle;whiteSpace=wrap;rounded=0;" vertex="1" parent="1">
          <mxGeometry x="1410" y="920" width="50" height="30" as="geometry" />
        </mxCell>
        <mxCell id="AHNI7z8tW2rZzbGDZ_H5-64" value="Ejecutar plan pruebas sistema&lt;sup&gt;15&lt;/sup&gt;" style="rounded=0;whiteSpace=wrap;html=1;" vertex="1" parent="1">
          <mxGeometry x="1610" y="1030" width="120" height="50" as="geometry" />
        </mxCell>
        <mxCell id="AHNI7z8tW2rZzbGDZ_H5-65" value="" style="endArrow=classic;html=1;rounded=0;exitX=1;exitY=0.5;exitDx=0;exitDy=0;entryX=0;entryY=0;entryDx=0;entryDy=0;" edge="1" parent="1" source="AHNI7z8tW2rZzbGDZ_H5-61" target="AHNI7z8tW2rZzbGDZ_H5-64">
          <mxGeometry width="50" height="50" relative="1" as="geometry">
            <mxPoint x="1630" y="1050" as="sourcePoint" />
            <mxPoint x="1680" y="1000" as="targetPoint" />
            <Array as="points">
              <mxPoint x="1610" y="985" />
            </Array>
          </mxGeometry>
        </mxCell>
        <mxCell id="AHNI7z8tW2rZzbGDZ_H5-66" value="FC" style="text;html=1;strokeColor=none;fillColor=none;align=center;verticalAlign=middle;whiteSpace=wrap;rounded=0;" vertex="1" parent="1">
          <mxGeometry x="1610" y="990" width="50" height="30" as="geometry" />
        </mxCell>
        <mxCell id="AHNI7z8tW2rZzbGDZ_H5-67" value="Ejecutar plan pruebas aceptación&lt;sup&gt;14&lt;/sup&gt;" style="rounded=0;whiteSpace=wrap;html=1;" vertex="1" parent="1">
          <mxGeometry x="1760" y="1100" width="120" height="50" as="geometry" />
        </mxCell>
        <mxCell id="AHNI7z8tW2rZzbGDZ_H5-68" value="" style="endArrow=classic;html=1;rounded=0;entryX=0;entryY=0;entryDx=0;entryDy=0;exitX=1;exitY=0.5;exitDx=0;exitDy=0;" edge="1" parent="1" source="AHNI7z8tW2rZzbGDZ_H5-64" target="AHNI7z8tW2rZzbGDZ_H5-67">
          <mxGeometry width="50" height="50" relative="1" as="geometry">
            <mxPoint x="1630" y="1110" as="sourcePoint" />
            <mxPoint x="1680" y="1060" as="targetPoint" />
            <Array as="points">
              <mxPoint x="1760" y="1055" />
            </Array>
          </mxGeometry>
        </mxCell>
        <mxCell id="AHNI7z8tW2rZzbGDZ_H5-69" value="FC" style="text;html=1;strokeColor=none;fillColor=none;align=center;verticalAlign=middle;whiteSpace=wrap;rounded=0;" vertex="1" parent="1">
          <mxGeometry x="1760" y="1050" width="40" height="30" as="geometry" />
        </mxCell>
        <mxCell id="AHNI7z8tW2rZzbGDZ_H5-70" value="Test de usabilidad&lt;sup&gt;19&lt;/sup&gt;" style="rounded=0;whiteSpace=wrap;html=1;" vertex="1" parent="1">
          <mxGeometry x="1900" y="1180" width="120" height="50" as="geometry" />
        </mxCell>
        <mxCell id="AHNI7z8tW2rZzbGDZ_H5-71" value="" style="endArrow=classic;html=1;rounded=0;exitX=1;exitY=0.5;exitDx=0;exitDy=0;entryX=0;entryY=0;entryDx=0;entryDy=0;" edge="1" parent="1" source="AHNI7z8tW2rZzbGDZ_H5-67" target="AHNI7z8tW2rZzbGDZ_H5-70">
          <mxGeometry width="50" height="50" relative="1" as="geometry">
            <mxPoint x="1800" y="1220" as="sourcePoint" />
            <mxPoint x="1850" y="1170" as="targetPoint" />
            <Array as="points">
              <mxPoint x="1900" y="1125" />
            </Array>
          </mxGeometry>
        </mxCell>
        <mxCell id="AHNI7z8tW2rZzbGDZ_H5-72" value="FC" style="text;html=1;strokeColor=none;fillColor=none;align=center;verticalAlign=middle;whiteSpace=wrap;rounded=0;" vertex="1" parent="1">
          <mxGeometry x="1900" y="1130" width="40" height="30" as="geometry" />
        </mxCell>
        <mxCell id="AHNI7z8tW2rZzbGDZ_H5-73" value="Elaborar plan instalación &amp;amp; formación&lt;sup&gt;22&lt;/sup&gt;" style="rounded=0;whiteSpace=wrap;html=1;" vertex="1" parent="1">
          <mxGeometry x="2060" y="1230" width="120" height="50" as="geometry" />
        </mxCell>
        <mxCell id="AHNI7z8tW2rZzbGDZ_H5-74" value="Elaborar Doc. Usuario v3&lt;sup&gt;21&lt;/sup&gt;" style="rounded=0;whiteSpace=wrap;html=1;" vertex="1" parent="1">
          <mxGeometry x="2030" y="1320" width="120" height="50" as="geometry" />
        </mxCell>
        <mxCell id="AHNI7z8tW2rZzbGDZ_H5-75" value="" style="endArrow=classic;html=1;rounded=0;exitX=1;exitY=0.25;exitDx=0;exitDy=0;entryX=0;entryY=0;entryDx=0;entryDy=0;" edge="1" parent="1" source="AHNI7z8tW2rZzbGDZ_H5-70" target="AHNI7z8tW2rZzbGDZ_H5-73">
          <mxGeometry width="50" height="50" relative="1" as="geometry">
            <mxPoint x="2140" y="1350" as="sourcePoint" />
            <mxPoint x="2190" y="1300" as="targetPoint" />
            <Array as="points">
              <mxPoint x="2060" y="1193" />
            </Array>
          </mxGeometry>
        </mxCell>
        <mxCell id="AHNI7z8tW2rZzbGDZ_H5-76" value="FC" style="text;html=1;strokeColor=none;fillColor=none;align=center;verticalAlign=middle;whiteSpace=wrap;rounded=0;" vertex="1" parent="1">
          <mxGeometry x="1150" y="630" width="60" height="30" as="geometry" />
        </mxCell>
        <mxCell id="AHNI7z8tW2rZzbGDZ_H5-77" value="FC" style="text;html=1;strokeColor=none;fillColor=none;align=center;verticalAlign=middle;whiteSpace=wrap;rounded=0;" vertex="1" parent="1">
          <mxGeometry x="1120" y="700" width="60" height="30" as="geometry" />
        </mxCell>
        <mxCell id="AHNI7z8tW2rZzbGDZ_H5-78" value="" style="endArrow=classic;html=1;rounded=0;exitX=1;exitY=0.5;exitDx=0;exitDy=0;entryX=0;entryY=0;entryDx=0;entryDy=0;" edge="1" parent="1" source="AHNI7z8tW2rZzbGDZ_H5-70" target="AHNI7z8tW2rZzbGDZ_H5-74">
          <mxGeometry width="50" height="50" relative="1" as="geometry">
            <mxPoint x="2030" y="1350" as="sourcePoint" />
            <mxPoint x="2080" y="1300" as="targetPoint" />
            <Array as="points">
              <mxPoint x="2030" y="1205" />
            </Array>
          </mxGeometry>
        </mxCell>
        <mxCell id="AHNI7z8tW2rZzbGDZ_H5-79" value="Actor" style="shape=umlActor;verticalLabelPosition=bottom;verticalAlign=top;html=1;outlineConnect=0;" vertex="1" parent="1">
          <mxGeometry x="1990" y="1120" width="30" height="60" as="geometry" />
        </mxCell>
        <mxCell id="AHNI7z8tW2rZzbGDZ_H5-80" value="Actor" style="shape=umlActor;verticalLabelPosition=bottom;verticalAlign=top;html=1;outlineConnect=0;" vertex="1" parent="1">
          <mxGeometry x="1420" y="760" width="30" height="60" as="geometry" />
        </mxCell>
        <mxCell id="AHNI7z8tW2rZzbGDZ_H5-81" value="Actor" style="shape=umlActor;verticalLabelPosition=bottom;verticalAlign=top;html=1;outlineConnect=0;" vertex="1" parent="1">
          <mxGeometry x="670" y="340" width="30" height="60" as="geometry" />
        </mxCell>
        <mxCell id="AHNI7z8tW2rZzbGDZ_H5-82" value="Actor" style="shape=umlActor;verticalLabelPosition=bottom;verticalAlign=top;html=1;outlineConnect=0;" vertex="1" parent="1">
          <mxGeometry x="290" y="110" width="30" height="60" as="geometry" />
        </mxCell>
        <mxCell id="AHNI7z8tW2rZzbGDZ_H5-83" value="Preparar paquete instalación&lt;sup&gt;20&lt;/sup&gt;" style="rounded=0;whiteSpace=wrap;html=1;" vertex="1" parent="1">
          <mxGeometry x="2190" y="1370" width="120" height="50" as="geometry" />
        </mxCell>
        <mxCell id="AHNI7z8tW2rZzbGDZ_H5-84" value="FC" style="text;html=1;strokeColor=none;fillColor=none;align=center;verticalAlign=middle;whiteSpace=wrap;rounded=0;" vertex="1" parent="1">
          <mxGeometry x="2060" y="1190" width="40" height="30" as="geometry" />
        </mxCell>
        <mxCell id="AHNI7z8tW2rZzbGDZ_H5-85" value="FC -50%" style="text;html=1;strokeColor=none;fillColor=none;align=center;verticalAlign=middle;whiteSpace=wrap;rounded=0;" vertex="1" parent="1">
          <mxGeometry x="1970" y="1260" width="55" height="30" as="geometry" />
        </mxCell>
        <mxCell id="AHNI7z8tW2rZzbGDZ_H5-86" value="" style="endArrow=classic;html=1;rounded=0;exitX=1;exitY=0.5;exitDx=0;exitDy=0;entryX=0;entryY=0;entryDx=0;entryDy=0;" edge="1" parent="1" source="AHNI7z8tW2rZzbGDZ_H5-73" target="AHNI7z8tW2rZzbGDZ_H5-83">
          <mxGeometry width="50" height="50" relative="1" as="geometry">
            <mxPoint x="2030" y="1350" as="sourcePoint" />
            <mxPoint x="2080" y="1300" as="targetPoint" />
            <Array as="points">
              <mxPoint x="2190" y="1255" />
            </Array>
          </mxGeometry>
        </mxCell>
        <mxCell id="AHNI7z8tW2rZzbGDZ_H5-87" value="FC" style="text;html=1;strokeColor=none;fillColor=none;align=center;verticalAlign=middle;whiteSpace=wrap;rounded=0;" vertex="1" parent="1">
          <mxGeometry x="2190" y="1290" width="40" height="30" as="geometry" />
        </mxCell>
        <mxCell id="AHNI7z8tW2rZzbGDZ_H5-88" value="Instalación cliente&lt;sup&gt;23&lt;/sup&gt;" style="rounded=0;whiteSpace=wrap;html=1;" vertex="1" parent="1">
          <mxGeometry x="2340" y="1440" width="120" height="50" as="geometry" />
        </mxCell>
        <mxCell id="AHNI7z8tW2rZzbGDZ_H5-89" value="Formación&lt;sup&gt;24&lt;/sup&gt;" style="rounded=0;whiteSpace=wrap;html=1;" vertex="1" parent="1">
          <mxGeometry x="2320" y="1520" width="120" height="50" as="geometry" />
        </mxCell>
        <mxCell id="AHNI7z8tW2rZzbGDZ_H5-90" value="" style="endArrow=classic;html=1;rounded=0;exitX=1;exitY=0.25;exitDx=0;exitDy=0;entryX=0;entryY=0;entryDx=0;entryDy=0;" edge="1" parent="1" source="AHNI7z8tW2rZzbGDZ_H5-83" target="AHNI7z8tW2rZzbGDZ_H5-88">
          <mxGeometry width="50" height="50" relative="1" as="geometry">
            <mxPoint x="2260" y="1520" as="sourcePoint" />
            <mxPoint x="2310" y="1470" as="targetPoint" />
            <Array as="points">
              <mxPoint x="2340" y="1383" />
            </Array>
          </mxGeometry>
        </mxCell>
        <mxCell id="AHNI7z8tW2rZzbGDZ_H5-91" value="" style="endArrow=classic;html=1;rounded=0;exitX=1;exitY=0.5;exitDx=0;exitDy=0;entryX=0;entryY=0;entryDx=0;entryDy=0;" edge="1" parent="1" source="AHNI7z8tW2rZzbGDZ_H5-83" target="AHNI7z8tW2rZzbGDZ_H5-89">
          <mxGeometry width="50" height="50" relative="1" as="geometry">
            <mxPoint x="2260" y="1520" as="sourcePoint" />
            <mxPoint x="2310" y="1470" as="targetPoint" />
            <Array as="points">
              <mxPoint x="2320" y="1395" />
            </Array>
          </mxGeometry>
        </mxCell>
        <mxCell id="AHNI7z8tW2rZzbGDZ_H5-92" value="FC" style="text;html=1;strokeColor=none;fillColor=none;align=center;verticalAlign=middle;whiteSpace=wrap;rounded=0;" vertex="1" parent="1">
          <mxGeometry x="2350" y="1390" width="40" height="30" as="geometry" />
        </mxCell>
        <mxCell id="AHNI7z8tW2rZzbGDZ_H5-93" value="FC" style="text;html=1;strokeColor=none;fillColor=none;align=center;verticalAlign=middle;whiteSpace=wrap;rounded=0;" vertex="1" parent="1">
          <mxGeometry x="2280" y="1450" width="40" height="30" as="geometry" />
        </mxCell>
      </root>
    </mxGraphModel>
  </diagram>
</mxfile>
